<svg xmlns="http://www.w3.org/2000/svg" viewBox="0 0 900 560" role="img" aria-label="综合车间安全隐患场景">
  <defs>
    <linearGradient id="bg" x1="0" x2="1" y1="0" y2="1">
      <stop stop-color="#EAF4FF"/>
      <stop offset="1" stop-color="#FFFFFF"/>
    </linearGradient>
  </defs>
  <rect width="900" height="560" fill="url(#bg)"/>
  <rect x="0" y="382" width="900" height="178" fill="#d7e5ef"/>
  <path d="M20 392H880" stroke="#b6cad7" stroke-width="4"/>
  <rect x="550" y="105" width="210" height="250" rx="16" fill="#dfeaf4" stroke="#9fb7c8" stroke-width="4"/>
  <rect x="585" y="135" width="58" height="80" fill="#0B3A75"/>
  <rect x="663" y="135" width="58" height="80" fill="#1E88E5"/>
  <text x="607" y="185" fill="#fff" font-size="20" font-family="Arial">配电</text>
  <rect x="690" y="300" width="120" height="54" fill="#FF9800" opacity=".85"/>
  <rect x="620" y="320" width="90" height="40" fill="#b7c7d5"/>
  <rect x="85" y="320" width="78" height="120" rx="8" fill="#E53935"/>
  <rect x="104" y="344" width="40" height="72" fill="#fff"/>
  <text x="92" y="306" fill="#E53935" font-size="22" font-family="Arial">灭火器</text>
  <rect x="98" y="385" width="125" height="68" fill="#a9854c"/>
  <rect x="332" y="165" width="260" height="205" rx="20" fill="#c9dbe7" stroke="#7fa2bd" stroke-width="4"/>
  <rect x="365" y="205" width="120" height="92" fill="#ffffff" stroke="#1E88E5" stroke-width="4"/>
  <path d="M485 205h62v92h-62" fill="#ffd48a" stroke="#FF9800" stroke-width="4"/>
  <circle cx="408" cy="250" r="25" fill="#FF9800"/>
  <rect x="543" y="345" width="120" height="32" fill="#FF9800"/>
  <rect x="555" y="305" width="16" height="92" fill="#E53935"/>
  <rect x="605" y="305" width="16" height="92" fill="#E53935"/>
  <rect x="575" y="342" width="80" height="42" fill="#9aa7ae"/>
  <path d="M170 378h210l-70 120H100z" fill="#f6c846" opacity=".35"/>
  <path d="M0 490h900" stroke="#f6c846" stroke-width="12" stroke-dasharray="50 24"/>
  <rect x="238" y="402" width="75" height="54" fill="#a9854c"/>
  <rect x="318" y="398" width="72" height="62" fill="#a9854c"/>
  <rect x="385" y="425" width="80" height="46" fill="#a9854c"/>
  <g transform="translate(145 152)">
    <rect x="0" y="78" width="150" height="55" rx="10" fill="#FF9800"/>
    <circle cx="36" cy="145" r="23" fill="#263238"/>
    <circle cx="122" cy="145" r="23" fill="#263238"/>
    <rect x="62" y="30" width="54" height="52" fill="#0B3A75"/>
    <path d="M0 78h50l22-52h42l36 52z" fill="#1E88E5"/>
    <text x="31" y="113" fill="#fff" font-size="24" font-family="Arial">叉车</text>
  </g>
  <g transform="translate(288 154)">
    <circle cx="45" cy="42" r="28" fill="#f3b27c"/>
    <rect x="24" y="72" width="46" height="95" rx="18" fill="#1E88E5"/>
    <rect x="14" y="105" width="22" height="86" rx="10" fill="#f3b27c"/>
    <rect x="58" y="105" width="22" height="86" rx="10" fill="#f3b27c"/>
    <text x="5" y="225" fill="#0B3A75" font-size="21" font-family="Arial">未戴安全帽</text>
  </g>
  <path d="M410 466c55-16 95-14 136 2 14 6 20 21 8 32-31 25-134 18-160-7-8-8-1-22 16-27z" fill="#455A64" opacity=".45"/>
  <text x="420" y="502" fill="#E53935" font-size="24" font-family="Arial">油污</text>
  <rect x="30" y="28" width="230" height="64" rx="14" fill="#0B3A75"/>
  <text x="55" y="68" fill="#fff" font-size="26" font-family="Microsoft YaHei, Arial">综合车间隐患图</text>
</svg>
